<svg width="128" height="128" xmlns="http://www.w3.org/2000/svg" shape-rendering="crispEdges">
    <path fill="#FBEB36"
          d="M48 8h2v2h-2zM50 8h2v2h-2zM52 8h2v2h-2zM54 8h2v2h-2zM56 8h2v2h-2zM58 8h2v2h-2zM60 8h2v2h-2zM62 8h2v2h-2zM64 8h2v2h-2zM66 8h2v2h-2zM68 8h2v2h-2zM70 8h2v2h-2z"/>
    <path fill="#FBEE2E" d="M72 8h2v2h-2zM74 8h2v2h-2zM76 8h2v2h-2zM78 8h2v2h-2z"/>
    <path fill="#FBEB36"
          d="M48 10h2v2h-2zM50 10h2v2h-2zM52 10h2v2h-2zM54 10h2v2h-2zM56 10h2v2h-2zM58 10h2v2h-2zM60 10h2v2h-2zM62 10h2v2h-2zM64 10h2v2h-2zM66 10h2v2h-2zM68 10h2v2h-2zM70 10h2v2h-2z"/>
    <path fill="#FBEE2E" d="M72 10h2v2h-2zM74 10h2v2h-2zM76 10h2v2h-2zM78 10h2v2h-2z"/>
    <path fill="#FBEB36"
          d="M48 12h2v2h-2zM50 12h2v2h-2zM52 12h2v2h-2zM54 12h2v2h-2zM56 12h2v2h-2zM58 12h2v2h-2zM60 12h2v2h-2zM62 12h2v2h-2zM64 12h2v2h-2zM66 12h2v2h-2zM68 12h2v2h-2zM70 12h2v2h-2z"/>
    <path fill="#FBEE2E" d="M72 12h2v2h-2zM74 12h2v2h-2zM76 12h2v2h-2zM78 12h2v2h-2z"/>
    <path fill="#FBEB36"
          d="M48 14h2v2h-2zM50 14h2v2h-2zM52 14h2v2h-2zM54 14h2v2h-2zM56 14h2v2h-2zM58 14h2v2h-2zM60 14h2v2h-2zM62 14h2v2h-2zM64 14h2v2h-2zM66 14h2v2h-2zM68 14h2v2h-2zM70 14h2v2h-2z"/>
    <path fill="#FBEE2E" d="M72 14h2v2h-2zM74 14h2v2h-2zM76 14h2v2h-2zM78 14h2v2h-2z"/>
    <path fill="#FBCE36" d="M32 16h2v2h-2zM34 16h2v2h-2zM36 16h2v2h-2zM38 16h2v2h-2z"/>
    <path fill="#FBE136" d="M40 16h2v2h-2zM42 16h2v2h-2zM44 16h2v2h-2zM46 16h2v2h-2z"/>
    <path fill="#FBEB36"
          d="M48 16h2v2h-2zM50 16h2v2h-2zM52 16h2v2h-2zM54 16h2v2h-2zM56 16h2v2h-2zM58 16h2v2h-2zM60 16h2v2h-2zM62 16h2v2h-2z"/>
    <path fill="#FBEE2E"
          d="M64 16h2v2h-2zM66 16h2v2h-2zM68 16h2v2h-2zM70 16h2v2h-2zM72 16h2v2h-2zM74 16h2v2h-2zM76 16h2v2h-2zM78 16h2v2h-2zM80 16h2v2h-2zM82 16h2v2h-2zM84 16h2v2h-2zM86 16h2v2h-2zM88 16h2v2h-2zM90 16h2v2h-2zM92 16h2v2h-2zM94 16h2v2h-2z"/>
    <path fill="#FBCE36" d="M32 18h2v2h-2zM34 18h2v2h-2zM36 18h2v2h-2zM38 18h2v2h-2z"/>
    <path fill="#FBE136" d="M40 18h2v2h-2zM42 18h2v2h-2zM44 18h2v2h-2zM46 18h2v2h-2z"/>
    <path fill="#FBEB36"
          d="M48 18h2v2h-2zM50 18h2v2h-2zM52 18h2v2h-2zM54 18h2v2h-2zM56 18h2v2h-2zM58 18h2v2h-2zM60 18h2v2h-2zM62 18h2v2h-2z"/>
    <path fill="#FBEE2E"
          d="M64 18h2v2h-2zM66 18h2v2h-2zM68 18h2v2h-2zM70 18h2v2h-2zM72 18h2v2h-2zM74 18h2v2h-2zM76 18h2v2h-2zM78 18h2v2h-2zM80 18h2v2h-2zM82 18h2v2h-2zM84 18h2v2h-2zM86 18h2v2h-2zM88 18h2v2h-2zM90 18h2v2h-2zM92 18h2v2h-2zM94 18h2v2h-2z"/>
    <path fill="#FBCE36" d="M32 20h2v2h-2zM34 20h2v2h-2zM36 20h2v2h-2zM38 20h2v2h-2z"/>
    <path fill="#FBE136" d="M40 20h2v2h-2zM42 20h2v2h-2zM44 20h2v2h-2zM46 20h2v2h-2z"/>
    <path fill="#FBEB36"
          d="M48 20h2v2h-2zM50 20h2v2h-2zM52 20h2v2h-2zM54 20h2v2h-2zM56 20h2v2h-2zM58 20h2v2h-2zM60 20h2v2h-2zM62 20h2v2h-2z"/>
    <path fill="#FBEE2E"
          d="M64 20h2v2h-2zM66 20h2v2h-2zM68 20h2v2h-2zM70 20h2v2h-2zM72 20h2v2h-2zM74 20h2v2h-2zM76 20h2v2h-2zM78 20h2v2h-2zM80 20h2v2h-2zM82 20h2v2h-2zM84 20h2v2h-2zM86 20h2v2h-2zM88 20h2v2h-2zM90 20h2v2h-2zM92 20h2v2h-2zM94 20h2v2h-2z"/>
    <path fill="#FBCE36" d="M32 22h2v2h-2zM34 22h2v2h-2zM36 22h2v2h-2zM38 22h2v2h-2z"/>
    <path fill="#FBE136" d="M40 22h2v2h-2zM42 22h2v2h-2zM44 22h2v2h-2zM46 22h2v2h-2z"/>
    <path fill="#FBEB36"
          d="M48 22h2v2h-2zM50 22h2v2h-2zM52 22h2v2h-2zM54 22h2v2h-2zM56 22h2v2h-2zM58 22h2v2h-2zM60 22h2v2h-2zM62 22h2v2h-2z"/>
    <path fill="#FBEE2E"
          d="M64 22h2v2h-2zM66 22h2v2h-2zM68 22h2v2h-2zM70 22h2v2h-2zM72 22h2v2h-2zM74 22h2v2h-2zM76 22h2v2h-2zM78 22h2v2h-2zM80 22h2v2h-2zM82 22h2v2h-2zM84 22h2v2h-2zM86 22h2v2h-2zM88 22h2v2h-2zM90 22h2v2h-2zM92 22h2v2h-2zM94 22h2v2h-2z"/>
    <path fill="#FBCE36" d="M24 24h2v2h-2zM26 24h2v2h-2zM28 24h2v2h-2zM30 24h2v2h-2z"/>
    <path fill="#FBD936" d="M32 24h2v2h-2zM34 24h2v2h-2zM36 24h2v2h-2zM38 24h2v2h-2z"/>
    <path fill="#FBE136"
          d="M40 24h2v2h-2zM42 24h2v2h-2zM44 24h2v2h-2zM46 24h2v2h-2zM48 24h2v2h-2zM50 24h2v2h-2zM52 24h2v2h-2zM54 24h2v2h-2z"/>
    <path fill="#FBEB36" d="M56 24h2v2h-2zM58 24h2v2h-2zM60 24h2v2h-2zM62 24h2v2h-2z"/>
    <path fill="#FBEE2E"
          d="M64 24h2v2h-2zM66 24h2v2h-2zM68 24h2v2h-2zM70 24h2v2h-2zM72 24h2v2h-2zM74 24h2v2h-2zM76 24h2v2h-2zM78 24h2v2h-2zM80 24h2v2h-2zM82 24h2v2h-2zM84 24h2v2h-2zM86 24h2v2h-2zM88 24h2v2h-2zM90 24h2v2h-2zM92 24h2v2h-2zM94 24h2v2h-2zM96 24h2v2h-2zM98 24h2v2h-2zM100 24h2v2h-2zM102 24h2v2h-2z"/>
    <path fill="#FBCE36" d="M24 26h2v2h-2zM26 26h2v2h-2zM28 26h2v2h-2zM30 26h2v2h-2z"/>
    <path fill="#FBD936" d="M32 26h2v2h-2zM34 26h2v2h-2zM36 26h2v2h-2zM38 26h2v2h-2z"/>
    <path fill="#FBE136"
          d="M40 26h2v2h-2zM42 26h2v2h-2zM44 26h2v2h-2zM46 26h2v2h-2zM48 26h2v2h-2zM50 26h2v2h-2zM52 26h2v2h-2zM54 26h2v2h-2z"/>
    <path fill="#FBEB36" d="M56 26h2v2h-2zM58 26h2v2h-2zM60 26h2v2h-2zM62 26h2v2h-2z"/>
    <path fill="#FBEE2E"
          d="M64 26h2v2h-2zM66 26h2v2h-2zM68 26h2v2h-2zM70 26h2v2h-2zM72 26h2v2h-2zM74 26h2v2h-2zM76 26h2v2h-2zM78 26h2v2h-2zM80 26h2v2h-2zM82 26h2v2h-2zM84 26h2v2h-2zM86 26h2v2h-2zM88 26h2v2h-2zM90 26h2v2h-2zM92 26h2v2h-2zM94 26h2v2h-2zM96 26h2v2h-2zM98 26h2v2h-2zM100 26h2v2h-2zM102 26h2v2h-2z"/>
    <path fill="#FBCE36" d="M24 28h2v2h-2zM26 28h2v2h-2zM28 28h2v2h-2zM30 28h2v2h-2z"/>
    <path fill="#FBD936" d="M32 28h2v2h-2zM34 28h2v2h-2zM36 28h2v2h-2zM38 28h2v2h-2z"/>
    <path fill="#FBE136"
          d="M40 28h2v2h-2zM42 28h2v2h-2zM44 28h2v2h-2zM46 28h2v2h-2zM48 28h2v2h-2zM50 28h2v2h-2zM52 28h2v2h-2zM54 28h2v2h-2z"/>
    <path fill="#FBEB36" d="M56 28h2v2h-2zM58 28h2v2h-2zM60 28h2v2h-2zM62 28h2v2h-2z"/>
    <path fill="#FBEE2E"
          d="M64 28h2v2h-2zM66 28h2v2h-2zM68 28h2v2h-2zM70 28h2v2h-2zM72 28h2v2h-2zM74 28h2v2h-2zM76 28h2v2h-2zM78 28h2v2h-2zM80 28h2v2h-2zM82 28h2v2h-2zM84 28h2v2h-2zM86 28h2v2h-2zM88 28h2v2h-2zM90 28h2v2h-2zM92 28h2v2h-2zM94 28h2v2h-2zM96 28h2v2h-2zM98 28h2v2h-2zM100 28h2v2h-2zM102 28h2v2h-2z"/>
    <path fill="#FBCE36" d="M24 30h2v2h-2zM26 30h2v2h-2zM28 30h2v2h-2zM30 30h2v2h-2z"/>
    <path fill="#FBD936" d="M32 30h2v2h-2zM34 30h2v2h-2zM36 30h2v2h-2zM38 30h2v2h-2z"/>
    <path fill="#FBE136"
          d="M40 30h2v2h-2zM42 30h2v2h-2zM44 30h2v2h-2zM46 30h2v2h-2zM48 30h2v2h-2zM50 30h2v2h-2zM52 30h2v2h-2zM54 30h2v2h-2z"/>
    <path fill="#FBEB36" d="M56 30h2v2h-2zM58 30h2v2h-2zM60 30h2v2h-2zM62 30h2v2h-2z"/>
    <path fill="#FBEE2E"
          d="M64 30h2v2h-2zM66 30h2v2h-2zM68 30h2v2h-2zM70 30h2v2h-2zM72 30h2v2h-2zM74 30h2v2h-2zM76 30h2v2h-2zM78 30h2v2h-2zM80 30h2v2h-2zM82 30h2v2h-2zM84 30h2v2h-2zM86 30h2v2h-2zM88 30h2v2h-2zM90 30h2v2h-2zM92 30h2v2h-2zM94 30h2v2h-2zM96 30h2v2h-2zM98 30h2v2h-2zM100 30h2v2h-2zM102 30h2v2h-2z"/>
    <path fill="#FBCE36"
          d="M16 32h2v2h-2zM18 32h2v2h-2zM20 32h2v2h-2zM22 32h2v2h-2zM24 32h2v2h-2zM26 32h2v2h-2zM28 32h2v2h-2zM30 32h2v2h-2z"/>
    <path fill="#FBD936" d="M32 32h2v2h-2zM34 32h2v2h-2zM36 32h2v2h-2zM38 32h2v2h-2z"/>
    <path fill="#FBE136"
          d="M40 32h2v2h-2zM42 32h2v2h-2zM44 32h2v2h-2zM46 32h2v2h-2zM48 32h2v2h-2zM50 32h2v2h-2zM52 32h2v2h-2zM54 32h2v2h-2z"/>
    <path fill="#FBEB36" d="M56 32h2v2h-2zM58 32h2v2h-2zM60 32h2v2h-2zM62 32h2v2h-2z"/>
    <path fill="#FBEE2E"
          d="M64 32h2v2h-2zM66 32h2v2h-2zM68 32h2v2h-2zM70 32h2v2h-2zM72 32h2v2h-2zM74 32h2v2h-2zM76 32h2v2h-2zM78 32h2v2h-2zM80 32h2v2h-2zM82 32h2v2h-2zM84 32h2v2h-2zM86 32h2v2h-2zM88 32h2v2h-2zM90 32h2v2h-2zM92 32h2v2h-2zM94 32h2v2h-2zM96 32h2v2h-2zM98 32h2v2h-2zM100 32h2v2h-2zM102 32h2v2h-2zM104 32h2v2h-2zM106 32h2v2h-2zM108 32h2v2h-2zM110 32h2v2h-2z"/>
    <path fill="#FBCE36"
          d="M16 34h2v2h-2zM18 34h2v2h-2zM20 34h2v2h-2zM22 34h2v2h-2zM24 34h2v2h-2zM26 34h2v2h-2zM28 34h2v2h-2zM30 34h2v2h-2z"/>
    <path fill="#FBD936" d="M32 34h2v2h-2zM34 34h2v2h-2zM36 34h2v2h-2zM38 34h2v2h-2z"/>
    <path fill="#FBE136"
          d="M40 34h2v2h-2zM42 34h2v2h-2zM44 34h2v2h-2zM46 34h2v2h-2zM48 34h2v2h-2zM50 34h2v2h-2zM52 34h2v2h-2zM54 34h2v2h-2z"/>
    <path fill="#FBEB36" d="M56 34h2v2h-2zM58 34h2v2h-2zM60 34h2v2h-2zM62 34h2v2h-2z"/>
    <path fill="#FBEE2E"
          d="M64 34h2v2h-2zM66 34h2v2h-2zM68 34h2v2h-2zM70 34h2v2h-2zM72 34h2v2h-2zM74 34h2v2h-2zM76 34h2v2h-2zM78 34h2v2h-2zM80 34h2v2h-2zM82 34h2v2h-2zM84 34h2v2h-2zM86 34h2v2h-2zM88 34h2v2h-2zM90 34h2v2h-2zM92 34h2v2h-2zM94 34h2v2h-2zM96 34h2v2h-2zM98 34h2v2h-2zM100 34h2v2h-2zM102 34h2v2h-2zM104 34h2v2h-2zM106 34h2v2h-2zM108 34h2v2h-2zM110 34h2v2h-2z"/>
    <path fill="#FBCE36"
          d="M16 36h2v2h-2zM18 36h2v2h-2zM20 36h2v2h-2zM22 36h2v2h-2zM24 36h2v2h-2zM26 36h2v2h-2zM28 36h2v2h-2zM30 36h2v2h-2z"/>
    <path fill="#FBD936" d="M32 36h2v2h-2zM34 36h2v2h-2zM36 36h2v2h-2zM38 36h2v2h-2z"/>
    <path fill="#FBE136"
          d="M40 36h2v2h-2zM42 36h2v2h-2zM44 36h2v2h-2zM46 36h2v2h-2zM48 36h2v2h-2zM50 36h2v2h-2zM52 36h2v2h-2zM54 36h2v2h-2z"/>
    <path fill="#FBEB36" d="M56 36h2v2h-2zM58 36h2v2h-2zM60 36h2v2h-2zM62 36h2v2h-2z"/>
    <path fill="#FBEE2E"
          d="M64 36h2v2h-2zM66 36h2v2h-2zM68 36h2v2h-2zM70 36h2v2h-2zM72 36h2v2h-2zM74 36h2v2h-2zM76 36h2v2h-2zM78 36h2v2h-2zM80 36h2v2h-2zM82 36h2v2h-2zM84 36h2v2h-2zM86 36h2v2h-2zM88 36h2v2h-2zM90 36h2v2h-2zM92 36h2v2h-2zM94 36h2v2h-2zM96 36h2v2h-2zM98 36h2v2h-2zM100 36h2v2h-2zM102 36h2v2h-2zM104 36h2v2h-2zM106 36h2v2h-2zM108 36h2v2h-2zM110 36h2v2h-2z"/>
    <path fill="#FBCE36"
          d="M16 38h2v2h-2zM18 38h2v2h-2zM20 38h2v2h-2zM22 38h2v2h-2zM24 38h2v2h-2zM26 38h2v2h-2zM28 38h2v2h-2zM30 38h2v2h-2z"/>
    <path fill="#FBD936" d="M32 38h2v2h-2zM34 38h2v2h-2zM36 38h2v2h-2zM38 38h2v2h-2z"/>
    <path fill="#FBE136"
          d="M40 38h2v2h-2zM42 38h2v2h-2zM44 38h2v2h-2zM46 38h2v2h-2zM48 38h2v2h-2zM50 38h2v2h-2zM52 38h2v2h-2zM54 38h2v2h-2z"/>
    <path fill="#FBEB36" d="M56 38h2v2h-2zM58 38h2v2h-2zM60 38h2v2h-2zM62 38h2v2h-2z"/>
    <path fill="#FBEE2E"
          d="M64 38h2v2h-2zM66 38h2v2h-2zM68 38h2v2h-2zM70 38h2v2h-2zM72 38h2v2h-2zM74 38h2v2h-2zM76 38h2v2h-2zM78 38h2v2h-2zM80 38h2v2h-2zM82 38h2v2h-2zM84 38h2v2h-2zM86 38h2v2h-2zM88 38h2v2h-2zM90 38h2v2h-2zM92 38h2v2h-2zM94 38h2v2h-2zM96 38h2v2h-2zM98 38h2v2h-2zM100 38h2v2h-2zM102 38h2v2h-2zM104 38h2v2h-2zM106 38h2v2h-2zM108 38h2v2h-2zM110 38h2v2h-2z"/>
    <path fill="#FBCE36"
          d="M16 40h2v2h-2zM18 40h2v2h-2zM20 40h2v2h-2zM22 40h2v2h-2zM24 40h2v2h-2zM26 40h2v2h-2zM28 40h2v2h-2zM30 40h2v2h-2z"/>
    <path fill="#FBD936" d="M32 40h2v2h-2zM34 40h2v2h-2zM36 40h2v2h-2zM38 40h2v2h-2z"/>
    <path fill="#FBE136"
          d="M40 40h2v2h-2zM42 40h2v2h-2zM44 40h2v2h-2zM46 40h2v2h-2zM48 40h2v2h-2zM50 40h2v2h-2zM52 40h2v2h-2zM54 40h2v2h-2zM56 40h2v2h-2zM58 40h2v2h-2zM60 40h2v2h-2zM62 40h2v2h-2z"/>
    <path fill="#FBEB36" d="M64 40h2v2h-2zM66 40h2v2h-2zM68 40h2v2h-2zM70 40h2v2h-2z"/>
    <path fill="#FBEE2E"
          d="M72 40h2v2h-2zM74 40h2v2h-2zM76 40h2v2h-2zM78 40h2v2h-2zM80 40h2v2h-2zM82 40h2v2h-2zM84 40h2v2h-2zM86 40h2v2h-2zM88 40h2v2h-2zM90 40h2v2h-2zM92 40h2v2h-2zM94 40h2v2h-2zM96 40h2v2h-2zM98 40h2v2h-2zM100 40h2v2h-2zM102 40h2v2h-2zM104 40h2v2h-2zM106 40h2v2h-2zM108 40h2v2h-2zM110 40h2v2h-2z"/>
    <path fill="#FBCE36"
          d="M16 42h2v2h-2zM18 42h2v2h-2zM20 42h2v2h-2zM22 42h2v2h-2zM24 42h2v2h-2zM26 42h2v2h-2zM28 42h2v2h-2zM30 42h2v2h-2z"/>
    <path fill="#FBD936" d="M32 42h2v2h-2zM34 42h2v2h-2zM36 42h2v2h-2zM38 42h2v2h-2z"/>
    <path fill="#FBE136"
          d="M40 42h2v2h-2zM42 42h2v2h-2zM44 42h2v2h-2zM46 42h2v2h-2zM48 42h2v2h-2zM50 42h2v2h-2zM52 42h2v2h-2zM54 42h2v2h-2zM56 42h2v2h-2zM58 42h2v2h-2zM60 42h2v2h-2zM62 42h2v2h-2z"/>
    <path fill="#FBEB36" d="M64 42h2v2h-2zM66 42h2v2h-2zM68 42h2v2h-2zM70 42h2v2h-2z"/>
    <path fill="#FBEE2E"
          d="M72 42h2v2h-2zM74 42h2v2h-2zM76 42h2v2h-2zM78 42h2v2h-2zM80 42h2v2h-2zM82 42h2v2h-2zM84 42h2v2h-2zM86 42h2v2h-2zM88 42h2v2h-2zM90 42h2v2h-2zM92 42h2v2h-2zM94 42h2v2h-2zM96 42h2v2h-2zM98 42h2v2h-2zM100 42h2v2h-2zM102 42h2v2h-2zM104 42h2v2h-2zM106 42h2v2h-2zM108 42h2v2h-2zM110 42h2v2h-2z"/>
    <path fill="#FBCE36"
          d="M16 44h2v2h-2zM18 44h2v2h-2zM20 44h2v2h-2zM22 44h2v2h-2zM24 44h2v2h-2zM26 44h2v2h-2zM28 44h2v2h-2zM30 44h2v2h-2z"/>
    <path fill="#FBD936" d="M32 44h2v2h-2zM34 44h2v2h-2zM36 44h2v2h-2zM38 44h2v2h-2z"/>
    <path fill="#FBE136"
          d="M40 44h2v2h-2zM42 44h2v2h-2zM44 44h2v2h-2zM46 44h2v2h-2zM48 44h2v2h-2zM50 44h2v2h-2zM52 44h2v2h-2zM54 44h2v2h-2zM56 44h2v2h-2zM58 44h2v2h-2zM60 44h2v2h-2zM62 44h2v2h-2z"/>
    <path fill="#FBEB36" d="M64 44h2v2h-2zM66 44h2v2h-2zM68 44h2v2h-2zM70 44h2v2h-2z"/>
    <path fill="#FBEE2E"
          d="M72 44h2v2h-2zM74 44h2v2h-2zM76 44h2v2h-2zM78 44h2v2h-2zM80 44h2v2h-2zM82 44h2v2h-2zM84 44h2v2h-2zM86 44h2v2h-2zM88 44h2v2h-2zM90 44h2v2h-2zM92 44h2v2h-2zM94 44h2v2h-2zM96 44h2v2h-2zM98 44h2v2h-2zM100 44h2v2h-2zM102 44h2v2h-2zM104 44h2v2h-2zM106 44h2v2h-2zM108 44h2v2h-2zM110 44h2v2h-2z"/>
    <path fill="#FBCE36"
          d="M16 46h2v2h-2zM18 46h2v2h-2zM20 46h2v2h-2zM22 46h2v2h-2zM24 46h2v2h-2zM26 46h2v2h-2zM28 46h2v2h-2zM30 46h2v2h-2z"/>
    <path fill="#FBD936" d="M32 46h2v2h-2zM34 46h2v2h-2zM36 46h2v2h-2zM38 46h2v2h-2z"/>
    <path fill="#FBE136"
          d="M40 46h2v2h-2zM42 46h2v2h-2zM44 46h2v2h-2zM46 46h2v2h-2zM48 46h2v2h-2zM50 46h2v2h-2zM52 46h2v2h-2zM54 46h2v2h-2zM56 46h2v2h-2zM58 46h2v2h-2zM60 46h2v2h-2zM62 46h2v2h-2z"/>
    <path fill="#FBEB36" d="M64 46h2v2h-2zM66 46h2v2h-2zM68 46h2v2h-2zM70 46h2v2h-2z"/>
    <path fill="#FBEE2E"
          d="M72 46h2v2h-2zM74 46h2v2h-2zM76 46h2v2h-2zM78 46h2v2h-2zM80 46h2v2h-2zM82 46h2v2h-2zM84 46h2v2h-2zM86 46h2v2h-2zM88 46h2v2h-2zM90 46h2v2h-2zM92 46h2v2h-2zM94 46h2v2h-2zM96 46h2v2h-2zM98 46h2v2h-2zM100 46h2v2h-2zM102 46h2v2h-2zM104 46h2v2h-2zM106 46h2v2h-2zM108 46h2v2h-2zM110 46h2v2h-2z"/>
    <path fill="#FBCE36"
          d="M8 48h2v2H8zM10 48h2v2h-2zM12 48h2v2h-2zM14 48h2v2h-2zM16 48h2v2h-2zM18 48h2v2h-2zM20 48h2v2h-2zM22 48h2v2h-2z"/>
    <path fill="#FBD936"
          d="M24 48h2v2h-2zM26 48h2v2h-2zM28 48h2v2h-2zM30 48h2v2h-2zM32 48h2v2h-2zM34 48h2v2h-2zM36 48h2v2h-2zM38 48h2v2h-2z"/>
    <path fill="#FBE136"
          d="M40 48h2v2h-2zM42 48h2v2h-2zM44 48h2v2h-2zM46 48h2v2h-2zM48 48h2v2h-2zM50 48h2v2h-2zM52 48h2v2h-2zM54 48h2v2h-2zM56 48h2v2h-2zM58 48h2v2h-2zM60 48h2v2h-2zM62 48h2v2h-2z"/>
    <path fill="#FBEB36" d="M64 48h2v2h-2zM66 48h2v2h-2zM68 48h2v2h-2zM70 48h2v2h-2z"/>
    <path fill="#FBEE2E"
          d="M72 48h2v2h-2zM74 48h2v2h-2zM76 48h2v2h-2zM78 48h2v2h-2zM80 48h2v2h-2zM82 48h2v2h-2zM84 48h2v2h-2zM86 48h2v2h-2zM88 48h2v2h-2zM90 48h2v2h-2zM92 48h2v2h-2zM94 48h2v2h-2zM96 48h2v2h-2zM98 48h2v2h-2zM100 48h2v2h-2zM102 48h2v2h-2zM104 48h2v2h-2zM106 48h2v2h-2zM108 48h2v2h-2zM110 48h2v2h-2zM112 48h2v2h-2zM114 48h2v2h-2zM116 48h2v2h-2zM118 48h2v2h-2z"/>
    <path fill="#FBCE36"
          d="M8 50h2v2H8zM10 50h2v2h-2zM12 50h2v2h-2zM14 50h2v2h-2zM16 50h2v2h-2zM18 50h2v2h-2zM20 50h2v2h-2zM22 50h2v2h-2z"/>
    <path fill="#FBD936"
          d="M24 50h2v2h-2zM26 50h2v2h-2zM28 50h2v2h-2zM30 50h2v2h-2zM32 50h2v2h-2zM34 50h2v2h-2zM36 50h2v2h-2zM38 50h2v2h-2z"/>
    <path fill="#FBE136"
          d="M40 50h2v2h-2zM42 50h2v2h-2zM44 50h2v2h-2zM46 50h2v2h-2zM48 50h2v2h-2zM50 50h2v2h-2zM52 50h2v2h-2zM54 50h2v2h-2zM56 50h2v2h-2zM58 50h2v2h-2zM60 50h2v2h-2zM62 50h2v2h-2z"/>
    <path fill="#FBEB36" d="M64 50h2v2h-2zM66 50h2v2h-2zM68 50h2v2h-2zM70 50h2v2h-2z"/>
    <path fill="#FBEE2E"
          d="M72 50h2v2h-2zM74 50h2v2h-2zM76 50h2v2h-2zM78 50h2v2h-2zM80 50h2v2h-2zM82 50h2v2h-2zM84 50h2v2h-2zM86 50h2v2h-2zM88 50h2v2h-2zM90 50h2v2h-2zM92 50h2v2h-2zM94 50h2v2h-2zM96 50h2v2h-2zM98 50h2v2h-2zM100 50h2v2h-2zM102 50h2v2h-2zM104 50h2v2h-2zM106 50h2v2h-2zM108 50h2v2h-2zM110 50h2v2h-2zM112 50h2v2h-2zM114 50h2v2h-2zM116 50h2v2h-2zM118 50h2v2h-2z"/>
    <path fill="#FBCE36"
          d="M8 52h2v2H8zM10 52h2v2h-2zM12 52h2v2h-2zM14 52h2v2h-2zM16 52h2v2h-2zM18 52h2v2h-2zM20 52h2v2h-2zM22 52h2v2h-2z"/>
    <path fill="#FBD936"
          d="M24 52h2v2h-2zM26 52h2v2h-2zM28 52h2v2h-2zM30 52h2v2h-2zM32 52h2v2h-2zM34 52h2v2h-2zM36 52h2v2h-2zM38 52h2v2h-2z"/>
    <path fill="#FBE136"
          d="M40 52h2v2h-2zM42 52h2v2h-2zM44 52h2v2h-2zM46 52h2v2h-2zM48 52h2v2h-2zM50 52h2v2h-2zM52 52h2v2h-2zM54 52h2v2h-2zM56 52h2v2h-2zM58 52h2v2h-2zM60 52h2v2h-2zM62 52h2v2h-2z"/>
    <path fill="#FBEB36" d="M64 52h2v2h-2zM66 52h2v2h-2zM68 52h2v2h-2zM70 52h2v2h-2z"/>
    <path fill="#FBEE2E"
          d="M72 52h2v2h-2zM74 52h2v2h-2zM76 52h2v2h-2zM78 52h2v2h-2zM80 52h2v2h-2zM82 52h2v2h-2zM84 52h2v2h-2zM86 52h2v2h-2zM88 52h2v2h-2zM90 52h2v2h-2zM92 52h2v2h-2zM94 52h2v2h-2zM96 52h2v2h-2zM98 52h2v2h-2zM100 52h2v2h-2zM102 52h2v2h-2zM104 52h2v2h-2zM106 52h2v2h-2zM108 52h2v2h-2zM110 52h2v2h-2zM112 52h2v2h-2zM114 52h2v2h-2zM116 52h2v2h-2zM118 52h2v2h-2z"/>
    <path fill="#FBCE36"
          d="M8 54h2v2H8zM10 54h2v2h-2zM12 54h2v2h-2zM14 54h2v2h-2zM16 54h2v2h-2zM18 54h2v2h-2zM20 54h2v2h-2zM22 54h2v2h-2z"/>
    <path fill="#FBD936"
          d="M24 54h2v2h-2zM26 54h2v2h-2zM28 54h2v2h-2zM30 54h2v2h-2zM32 54h2v2h-2zM34 54h2v2h-2zM36 54h2v2h-2zM38 54h2v2h-2z"/>
    <path fill="#FBE136"
          d="M40 54h2v2h-2zM42 54h2v2h-2zM44 54h2v2h-2zM46 54h2v2h-2zM48 54h2v2h-2zM50 54h2v2h-2zM52 54h2v2h-2zM54 54h2v2h-2zM56 54h2v2h-2zM58 54h2v2h-2zM60 54h2v2h-2zM62 54h2v2h-2z"/>
    <path fill="#FBEB36" d="M64 54h2v2h-2zM66 54h2v2h-2zM68 54h2v2h-2zM70 54h2v2h-2z"/>
    <path fill="#FBEE2E"
          d="M72 54h2v2h-2zM74 54h2v2h-2zM76 54h2v2h-2zM78 54h2v2h-2zM80 54h2v2h-2zM82 54h2v2h-2zM84 54h2v2h-2zM86 54h2v2h-2zM88 54h2v2h-2zM90 54h2v2h-2zM92 54h2v2h-2zM94 54h2v2h-2zM96 54h2v2h-2zM98 54h2v2h-2zM100 54h2v2h-2zM102 54h2v2h-2zM104 54h2v2h-2zM106 54h2v2h-2zM108 54h2v2h-2zM110 54h2v2h-2zM112 54h2v2h-2zM114 54h2v2h-2zM116 54h2v2h-2zM118 54h2v2h-2z"/>
    <path fill="#FBCE36"
          d="M8 56h2v2H8zM10 56h2v2h-2zM12 56h2v2h-2zM14 56h2v2h-2zM16 56h2v2h-2zM18 56h2v2h-2zM20 56h2v2h-2zM22 56h2v2h-2z"/>
    <path fill="#FBD936"
          d="M24 56h2v2h-2zM26 56h2v2h-2zM28 56h2v2h-2zM30 56h2v2h-2zM32 56h2v2h-2zM34 56h2v2h-2zM36 56h2v2h-2zM38 56h2v2h-2zM40 56h2v2h-2zM42 56h2v2h-2zM44 56h2v2h-2zM46 56h2v2h-2z"/>
    <path fill="#FBE136"
          d="M48 56h2v2h-2zM50 56h2v2h-2zM52 56h2v2h-2zM54 56h2v2h-2zM56 56h2v2h-2zM58 56h2v2h-2zM60 56h2v2h-2zM62 56h2v2h-2zM64 56h2v2h-2zM66 56h2v2h-2zM68 56h2v2h-2zM70 56h2v2h-2z"/>
    <path fill="#FBEB36" d="M72 56h2v2h-2zM74 56h2v2h-2zM76 56h2v2h-2zM78 56h2v2h-2z"/>
    <path fill="#FBEE2E"
          d="M80 56h2v2h-2zM82 56h2v2h-2zM84 56h2v2h-2zM86 56h2v2h-2zM88 56h2v2h-2zM90 56h2v2h-2zM92 56h2v2h-2zM94 56h2v2h-2zM96 56h2v2h-2zM98 56h2v2h-2zM100 56h2v2h-2zM102 56h2v2h-2zM104 56h2v2h-2zM106 56h2v2h-2zM108 56h2v2h-2zM110 56h2v2h-2zM112 56h2v2h-2zM114 56h2v2h-2zM116 56h2v2h-2zM118 56h2v2h-2z"/>
    <path fill="#FBCE36"
          d="M8 58h2v2H8zM10 58h2v2h-2zM12 58h2v2h-2zM14 58h2v2h-2zM16 58h2v2h-2zM18 58h2v2h-2zM20 58h2v2h-2zM22 58h2v2h-2z"/>
    <path fill="#FBD936"
          d="M24 58h2v2h-2zM26 58h2v2h-2zM28 58h2v2h-2zM30 58h2v2h-2zM32 58h2v2h-2zM34 58h2v2h-2zM36 58h2v2h-2zM38 58h2v2h-2zM40 58h2v2h-2zM42 58h2v2h-2zM44 58h2v2h-2zM46 58h2v2h-2z"/>
    <path fill="#FBE136"
          d="M48 58h2v2h-2zM50 58h2v2h-2zM52 58h2v2h-2zM54 58h2v2h-2zM56 58h2v2h-2zM58 58h2v2h-2zM60 58h2v2h-2zM62 58h2v2h-2zM64 58h2v2h-2zM66 58h2v2h-2zM68 58h2v2h-2zM70 58h2v2h-2z"/>
    <path fill="#FBEB36" d="M72 58h2v2h-2zM74 58h2v2h-2zM76 58h2v2h-2zM78 58h2v2h-2z"/>
    <path fill="#FBEE2E"
          d="M80 58h2v2h-2zM82 58h2v2h-2zM84 58h2v2h-2zM86 58h2v2h-2zM88 58h2v2h-2zM90 58h2v2h-2zM92 58h2v2h-2zM94 58h2v2h-2zM96 58h2v2h-2zM98 58h2v2h-2zM100 58h2v2h-2zM102 58h2v2h-2zM104 58h2v2h-2zM106 58h2v2h-2zM108 58h2v2h-2zM110 58h2v2h-2zM112 58h2v2h-2zM114 58h2v2h-2zM116 58h2v2h-2zM118 58h2v2h-2z"/>
    <path fill="#FBCE36"
          d="M8 60h2v2H8zM10 60h2v2h-2zM12 60h2v2h-2zM14 60h2v2h-2zM16 60h2v2h-2zM18 60h2v2h-2zM20 60h2v2h-2zM22 60h2v2h-2z"/>
    <path fill="#FBD936"
          d="M24 60h2v2h-2zM26 60h2v2h-2zM28 60h2v2h-2zM30 60h2v2h-2zM32 60h2v2h-2zM34 60h2v2h-2zM36 60h2v2h-2zM38 60h2v2h-2zM40 60h2v2h-2zM42 60h2v2h-2zM44 60h2v2h-2zM46 60h2v2h-2z"/>
    <path fill="#FBE136"
          d="M48 60h2v2h-2zM50 60h2v2h-2zM52 60h2v2h-2zM54 60h2v2h-2zM56 60h2v2h-2zM58 60h2v2h-2zM60 60h2v2h-2zM62 60h2v2h-2zM64 60h2v2h-2zM66 60h2v2h-2zM68 60h2v2h-2zM70 60h2v2h-2z"/>
    <path fill="#FBEB36" d="M72 60h2v2h-2zM74 60h2v2h-2zM76 60h2v2h-2zM78 60h2v2h-2z"/>
    <path fill="#FBEE2E"
          d="M80 60h2v2h-2zM82 60h2v2h-2zM84 60h2v2h-2zM86 60h2v2h-2zM88 60h2v2h-2zM90 60h2v2h-2zM92 60h2v2h-2zM94 60h2v2h-2zM96 60h2v2h-2zM98 60h2v2h-2zM100 60h2v2h-2zM102 60h2v2h-2zM104 60h2v2h-2zM106 60h2v2h-2zM108 60h2v2h-2zM110 60h2v2h-2zM112 60h2v2h-2zM114 60h2v2h-2zM116 60h2v2h-2zM118 60h2v2h-2z"/>
    <path fill="#FBCE36"
          d="M8 62h2v2H8zM10 62h2v2h-2zM12 62h2v2h-2zM14 62h2v2h-2zM16 62h2v2h-2zM18 62h2v2h-2zM20 62h2v2h-2zM22 62h2v2h-2z"/>
    <path fill="#FBD936"
          d="M24 62h2v2h-2zM26 62h2v2h-2zM28 62h2v2h-2zM30 62h2v2h-2zM32 62h2v2h-2zM34 62h2v2h-2zM36 62h2v2h-2zM38 62h2v2h-2zM40 62h2v2h-2zM42 62h2v2h-2zM44 62h2v2h-2zM46 62h2v2h-2z"/>
    <path fill="#FBE136"
          d="M48 62h2v2h-2zM50 62h2v2h-2zM52 62h2v2h-2zM54 62h2v2h-2zM56 62h2v2h-2zM58 62h2v2h-2zM60 62h2v2h-2zM62 62h2v2h-2zM64 62h2v2h-2zM66 62h2v2h-2zM68 62h2v2h-2zM70 62h2v2h-2z"/>
    <path fill="#FBEB36" d="M72 62h2v2h-2zM74 62h2v2h-2zM76 62h2v2h-2zM78 62h2v2h-2z"/>
    <path fill="#FBEE2E"
          d="M80 62h2v2h-2zM82 62h2v2h-2zM84 62h2v2h-2zM86 62h2v2h-2zM88 62h2v2h-2zM90 62h2v2h-2zM92 62h2v2h-2zM94 62h2v2h-2zM96 62h2v2h-2zM98 62h2v2h-2zM100 62h2v2h-2zM102 62h2v2h-2zM104 62h2v2h-2zM106 62h2v2h-2zM108 62h2v2h-2zM110 62h2v2h-2zM112 62h2v2h-2zM114 62h2v2h-2zM116 62h2v2h-2zM118 62h2v2h-2z"/>
    <path fill="#FBCE36"
          d="M8 64h2v2H8zM10 64h2v2h-2zM12 64h2v2h-2zM14 64h2v2h-2zM16 64h2v2h-2zM18 64h2v2h-2zM20 64h2v2h-2zM22 64h2v2h-2z"/>
    <path fill="#FBD936"
          d="M24 64h2v2h-2zM26 64h2v2h-2zM28 64h2v2h-2zM30 64h2v2h-2zM32 64h2v2h-2zM34 64h2v2h-2zM36 64h2v2h-2zM38 64h2v2h-2zM40 64h2v2h-2zM42 64h2v2h-2zM44 64h2v2h-2zM46 64h2v2h-2zM48 64h2v2h-2zM50 64h2v2h-2zM52 64h2v2h-2zM54 64h2v2h-2z"/>
    <path fill="#FBE136"
          d="M56 64h2v2h-2zM58 64h2v2h-2zM60 64h2v2h-2zM62 64h2v2h-2zM64 64h2v2h-2zM66 64h2v2h-2zM68 64h2v2h-2zM70 64h2v2h-2zM72 64h2v2h-2zM74 64h2v2h-2zM76 64h2v2h-2zM78 64h2v2h-2z"/>
    <path fill="#FBEB36" d="M80 64h2v2h-2zM82 64h2v2h-2zM84 64h2v2h-2zM86 64h2v2h-2z"/>
    <path fill="#FBEE2E"
          d="M88 64h2v2h-2zM90 64h2v2h-2zM92 64h2v2h-2zM94 64h2v2h-2zM96 64h2v2h-2zM98 64h2v2h-2zM100 64h2v2h-2zM102 64h2v2h-2zM104 64h2v2h-2zM106 64h2v2h-2zM108 64h2v2h-2zM110 64h2v2h-2zM112 64h2v2h-2zM114 64h2v2h-2zM116 64h2v2h-2zM118 64h2v2h-2z"/>
    <path fill="#FBCE36"
          d="M8 66h2v2H8zM10 66h2v2h-2zM12 66h2v2h-2zM14 66h2v2h-2zM16 66h2v2h-2zM18 66h2v2h-2zM20 66h2v2h-2zM22 66h2v2h-2z"/>
    <path fill="#FBD936"
          d="M24 66h2v2h-2zM26 66h2v2h-2zM28 66h2v2h-2zM30 66h2v2h-2zM32 66h2v2h-2zM34 66h2v2h-2zM36 66h2v2h-2zM38 66h2v2h-2zM40 66h2v2h-2zM42 66h2v2h-2zM44 66h2v2h-2zM46 66h2v2h-2zM48 66h2v2h-2zM50 66h2v2h-2zM52 66h2v2h-2zM54 66h2v2h-2z"/>
    <path fill="#FBE136"
          d="M56 66h2v2h-2zM58 66h2v2h-2zM60 66h2v2h-2zM62 66h2v2h-2zM64 66h2v2h-2zM66 66h2v2h-2zM68 66h2v2h-2zM70 66h2v2h-2zM72 66h2v2h-2zM74 66h2v2h-2zM76 66h2v2h-2zM78 66h2v2h-2z"/>
    <path fill="#FBEB36" d="M80 66h2v2h-2zM82 66h2v2h-2zM84 66h2v2h-2zM86 66h2v2h-2z"/>
    <path fill="#FBEE2E"
          d="M88 66h2v2h-2zM90 66h2v2h-2zM92 66h2v2h-2zM94 66h2v2h-2zM96 66h2v2h-2zM98 66h2v2h-2zM100 66h2v2h-2zM102 66h2v2h-2zM104 66h2v2h-2zM106 66h2v2h-2zM108 66h2v2h-2zM110 66h2v2h-2zM112 66h2v2h-2zM114 66h2v2h-2zM116 66h2v2h-2zM118 66h2v2h-2z"/>
    <path fill="#FBCE36"
          d="M8 68h2v2H8zM10 68h2v2h-2zM12 68h2v2h-2zM14 68h2v2h-2zM16 68h2v2h-2zM18 68h2v2h-2zM20 68h2v2h-2zM22 68h2v2h-2z"/>
    <path fill="#FBD936"
          d="M24 68h2v2h-2zM26 68h2v2h-2zM28 68h2v2h-2zM30 68h2v2h-2zM32 68h2v2h-2zM34 68h2v2h-2zM36 68h2v2h-2zM38 68h2v2h-2zM40 68h2v2h-2zM42 68h2v2h-2zM44 68h2v2h-2zM46 68h2v2h-2zM48 68h2v2h-2zM50 68h2v2h-2zM52 68h2v2h-2zM54 68h2v2h-2z"/>
    <path fill="#FBE136"
          d="M56 68h2v2h-2zM58 68h2v2h-2zM60 68h2v2h-2zM62 68h2v2h-2zM64 68h2v2h-2zM66 68h2v2h-2zM68 68h2v2h-2zM70 68h2v2h-2zM72 68h2v2h-2zM74 68h2v2h-2zM76 68h2v2h-2zM78 68h2v2h-2z"/>
    <path fill="#FBEB36" d="M80 68h2v2h-2zM82 68h2v2h-2zM84 68h2v2h-2zM86 68h2v2h-2z"/>
    <path fill="#FBEE2E"
          d="M88 68h2v2h-2zM90 68h2v2h-2zM92 68h2v2h-2zM94 68h2v2h-2zM96 68h2v2h-2zM98 68h2v2h-2zM100 68h2v2h-2zM102 68h2v2h-2zM104 68h2v2h-2zM106 68h2v2h-2zM108 68h2v2h-2zM110 68h2v2h-2zM112 68h2v2h-2zM114 68h2v2h-2zM116 68h2v2h-2zM118 68h2v2h-2z"/>
    <path fill="#FBCE36"
          d="M8 70h2v2H8zM10 70h2v2h-2zM12 70h2v2h-2zM14 70h2v2h-2zM16 70h2v2h-2zM18 70h2v2h-2zM20 70h2v2h-2zM22 70h2v2h-2z"/>
    <path fill="#FBD936"
          d="M24 70h2v2h-2zM26 70h2v2h-2zM28 70h2v2h-2zM30 70h2v2h-2zM32 70h2v2h-2zM34 70h2v2h-2zM36 70h2v2h-2zM38 70h2v2h-2zM40 70h2v2h-2zM42 70h2v2h-2zM44 70h2v2h-2zM46 70h2v2h-2zM48 70h2v2h-2zM50 70h2v2h-2zM52 70h2v2h-2zM54 70h2v2h-2z"/>
    <path fill="#FBE136"
          d="M56 70h2v2h-2zM58 70h2v2h-2zM60 70h2v2h-2zM62 70h2v2h-2zM64 70h2v2h-2zM66 70h2v2h-2zM68 70h2v2h-2zM70 70h2v2h-2zM72 70h2v2h-2zM74 70h2v2h-2zM76 70h2v2h-2zM78 70h2v2h-2z"/>
    <path fill="#FBEB36" d="M80 70h2v2h-2zM82 70h2v2h-2zM84 70h2v2h-2zM86 70h2v2h-2z"/>
    <path fill="#FBEE2E"
          d="M88 70h2v2h-2zM90 70h2v2h-2zM92 70h2v2h-2zM94 70h2v2h-2zM96 70h2v2h-2zM98 70h2v2h-2zM100 70h2v2h-2zM102 70h2v2h-2zM104 70h2v2h-2zM106 70h2v2h-2zM108 70h2v2h-2zM110 70h2v2h-2zM112 70h2v2h-2zM114 70h2v2h-2zM116 70h2v2h-2zM118 70h2v2h-2z"/>
    <path fill="#FBCE36"
          d="M8 72h2v2H8zM10 72h2v2h-2zM12 72h2v2h-2zM14 72h2v2h-2zM16 72h2v2h-2zM18 72h2v2h-2zM20 72h2v2h-2zM22 72h2v2h-2zM24 72h2v2h-2zM26 72h2v2h-2zM28 72h2v2h-2zM30 72h2v2h-2z"/>
    <path fill="#FBD936"
          d="M32 72h2v2h-2zM34 72h2v2h-2zM36 72h2v2h-2zM38 72h2v2h-2zM40 72h2v2h-2zM42 72h2v2h-2zM44 72h2v2h-2zM46 72h2v2h-2zM48 72h2v2h-2zM50 72h2v2h-2zM52 72h2v2h-2zM54 72h2v2h-2zM56 72h2v2h-2zM58 72h2v2h-2zM60 72h2v2h-2zM62 72h2v2h-2z"/>
    <path fill="#FBE136"
          d="M64 72h2v2h-2zM66 72h2v2h-2zM68 72h2v2h-2zM70 72h2v2h-2zM72 72h2v2h-2zM74 72h2v2h-2zM76 72h2v2h-2zM78 72h2v2h-2zM80 72h2v2h-2zM82 72h2v2h-2zM84 72h2v2h-2zM86 72h2v2h-2z"/>
    <path fill="#FBEB36"
          d="M88 72h2v2h-2zM90 72h2v2h-2zM92 72h2v2h-2zM94 72h2v2h-2zM96 72h2v2h-2zM98 72h2v2h-2zM100 72h2v2h-2zM102 72h2v2h-2zM104 72h2v2h-2zM106 72h2v2h-2zM108 72h2v2h-2zM110 72h2v2h-2zM112 72h2v2h-2zM114 72h2v2h-2zM116 72h2v2h-2zM118 72h2v2h-2z"/>
    <path fill="#FBCE36"
          d="M8 74h2v2H8zM10 74h2v2h-2zM12 74h2v2h-2zM14 74h2v2h-2zM16 74h2v2h-2zM18 74h2v2h-2zM20 74h2v2h-2zM22 74h2v2h-2zM24 74h2v2h-2zM26 74h2v2h-2zM28 74h2v2h-2zM30 74h2v2h-2z"/>
    <path fill="#FBD936"
          d="M32 74h2v2h-2zM34 74h2v2h-2zM36 74h2v2h-2zM38 74h2v2h-2zM40 74h2v2h-2zM42 74h2v2h-2zM44 74h2v2h-2zM46 74h2v2h-2zM48 74h2v2h-2zM50 74h2v2h-2zM52 74h2v2h-2zM54 74h2v2h-2zM56 74h2v2h-2zM58 74h2v2h-2zM60 74h2v2h-2zM62 74h2v2h-2z"/>
    <path fill="#FBE136"
          d="M64 74h2v2h-2zM66 74h2v2h-2zM68 74h2v2h-2zM70 74h2v2h-2zM72 74h2v2h-2zM74 74h2v2h-2zM76 74h2v2h-2zM78 74h2v2h-2zM80 74h2v2h-2zM82 74h2v2h-2zM84 74h2v2h-2zM86 74h2v2h-2z"/>
    <path fill="#FBEB36"
          d="M88 74h2v2h-2zM90 74h2v2h-2zM92 74h2v2h-2zM94 74h2v2h-2zM96 74h2v2h-2zM98 74h2v2h-2zM100 74h2v2h-2zM102 74h2v2h-2zM104 74h2v2h-2zM106 74h2v2h-2zM108 74h2v2h-2zM110 74h2v2h-2zM112 74h2v2h-2zM114 74h2v2h-2zM116 74h2v2h-2zM118 74h2v2h-2z"/>
    <path fill="#FBCE36"
          d="M8 76h2v2H8zM10 76h2v2h-2zM12 76h2v2h-2zM14 76h2v2h-2zM16 76h2v2h-2zM18 76h2v2h-2zM20 76h2v2h-2zM22 76h2v2h-2zM24 76h2v2h-2zM26 76h2v2h-2zM28 76h2v2h-2zM30 76h2v2h-2z"/>
    <path fill="#FBD936"
          d="M32 76h2v2h-2zM34 76h2v2h-2zM36 76h2v2h-2zM38 76h2v2h-2zM40 76h2v2h-2zM42 76h2v2h-2zM44 76h2v2h-2zM46 76h2v2h-2zM48 76h2v2h-2zM50 76h2v2h-2zM52 76h2v2h-2zM54 76h2v2h-2zM56 76h2v2h-2zM58 76h2v2h-2zM60 76h2v2h-2zM62 76h2v2h-2z"/>
    <path fill="#FBE136"
          d="M64 76h2v2h-2zM66 76h2v2h-2zM68 76h2v2h-2zM70 76h2v2h-2zM72 76h2v2h-2zM74 76h2v2h-2zM76 76h2v2h-2zM78 76h2v2h-2zM80 76h2v2h-2zM82 76h2v2h-2zM84 76h2v2h-2zM86 76h2v2h-2z"/>
    <path fill="#FBEB36"
          d="M88 76h2v2h-2zM90 76h2v2h-2zM92 76h2v2h-2zM94 76h2v2h-2zM96 76h2v2h-2zM98 76h2v2h-2zM100 76h2v2h-2zM102 76h2v2h-2zM104 76h2v2h-2zM106 76h2v2h-2zM108 76h2v2h-2zM110 76h2v2h-2zM112 76h2v2h-2zM114 76h2v2h-2zM116 76h2v2h-2zM118 76h2v2h-2z"/>
    <path fill="#FBCE36"
          d="M8 78h2v2H8zM10 78h2v2h-2zM12 78h2v2h-2zM14 78h2v2h-2zM16 78h2v2h-2zM18 78h2v2h-2zM20 78h2v2h-2zM22 78h2v2h-2zM24 78h2v2h-2zM26 78h2v2h-2zM28 78h2v2h-2zM30 78h2v2h-2z"/>
    <path fill="#FBD936"
          d="M32 78h2v2h-2zM34 78h2v2h-2zM36 78h2v2h-2zM38 78h2v2h-2zM40 78h2v2h-2zM42 78h2v2h-2zM44 78h2v2h-2zM46 78h2v2h-2zM48 78h2v2h-2zM50 78h2v2h-2zM52 78h2v2h-2zM54 78h2v2h-2zM56 78h2v2h-2zM58 78h2v2h-2zM60 78h2v2h-2zM62 78h2v2h-2z"/>
    <path fill="#FBE136"
          d="M64 78h2v2h-2zM66 78h2v2h-2zM68 78h2v2h-2zM70 78h2v2h-2zM72 78h2v2h-2zM74 78h2v2h-2zM76 78h2v2h-2zM78 78h2v2h-2zM80 78h2v2h-2zM82 78h2v2h-2zM84 78h2v2h-2zM86 78h2v2h-2z"/>
    <path fill="#FBEB36"
          d="M88 78h2v2h-2zM90 78h2v2h-2zM92 78h2v2h-2zM94 78h2v2h-2zM96 78h2v2h-2zM98 78h2v2h-2zM100 78h2v2h-2zM102 78h2v2h-2zM104 78h2v2h-2zM106 78h2v2h-2zM108 78h2v2h-2zM110 78h2v2h-2zM112 78h2v2h-2zM114 78h2v2h-2zM116 78h2v2h-2zM118 78h2v2h-2z"/>
    <path fill="#FBCE36"
          d="M16 80h2v2h-2zM18 80h2v2h-2zM20 80h2v2h-2zM22 80h2v2h-2zM24 80h2v2h-2zM26 80h2v2h-2zM28 80h2v2h-2zM30 80h2v2h-2zM32 80h2v2h-2zM34 80h2v2h-2zM36 80h2v2h-2zM38 80h2v2h-2z"/>
    <path fill="#FBD936"
          d="M40 80h2v2h-2zM42 80h2v2h-2zM44 80h2v2h-2zM46 80h2v2h-2zM48 80h2v2h-2zM50 80h2v2h-2zM52 80h2v2h-2zM54 80h2v2h-2zM56 80h2v2h-2zM58 80h2v2h-2zM60 80h2v2h-2zM62 80h2v2h-2zM64 80h2v2h-2zM66 80h2v2h-2zM68 80h2v2h-2zM70 80h2v2h-2z"/>
    <path fill="#FBE136"
          d="M72 80h2v2h-2zM74 80h2v2h-2zM76 80h2v2h-2zM78 80h2v2h-2zM80 80h2v2h-2zM82 80h2v2h-2zM84 80h2v2h-2zM86 80h2v2h-2zM88 80h2v2h-2zM90 80h2v2h-2zM92 80h2v2h-2zM94 80h2v2h-2z"/>
    <path fill="#FBEB36"
          d="M96 80h2v2h-2zM98 80h2v2h-2zM100 80h2v2h-2zM102 80h2v2h-2zM104 80h2v2h-2zM106 80h2v2h-2zM108 80h2v2h-2zM110 80h2v2h-2z"/>
    <path fill="#FBCE36"
          d="M16 82h2v2h-2zM18 82h2v2h-2zM20 82h2v2h-2zM22 82h2v2h-2zM24 82h2v2h-2zM26 82h2v2h-2zM28 82h2v2h-2zM30 82h2v2h-2zM32 82h2v2h-2zM34 82h2v2h-2zM36 82h2v2h-2zM38 82h2v2h-2z"/>
    <path fill="#FBD936"
          d="M40 82h2v2h-2zM42 82h2v2h-2zM44 82h2v2h-2zM46 82h2v2h-2zM48 82h2v2h-2zM50 82h2v2h-2zM52 82h2v2h-2zM54 82h2v2h-2zM56 82h2v2h-2zM58 82h2v2h-2zM60 82h2v2h-2zM62 82h2v2h-2zM64 82h2v2h-2zM66 82h2v2h-2zM68 82h2v2h-2zM70 82h2v2h-2z"/>
    <path fill="#FBE136"
          d="M72 82h2v2h-2zM74 82h2v2h-2zM76 82h2v2h-2zM78 82h2v2h-2zM80 82h2v2h-2zM82 82h2v2h-2zM84 82h2v2h-2zM86 82h2v2h-2zM88 82h2v2h-2zM90 82h2v2h-2zM92 82h2v2h-2zM94 82h2v2h-2z"/>
    <path fill="#FBEB36"
          d="M96 82h2v2h-2zM98 82h2v2h-2zM100 82h2v2h-2zM102 82h2v2h-2zM104 82h2v2h-2zM106 82h2v2h-2zM108 82h2v2h-2zM110 82h2v2h-2z"/>
    <path fill="#FBCE36"
          d="M16 84h2v2h-2zM18 84h2v2h-2zM20 84h2v2h-2zM22 84h2v2h-2zM24 84h2v2h-2zM26 84h2v2h-2zM28 84h2v2h-2zM30 84h2v2h-2zM32 84h2v2h-2zM34 84h2v2h-2zM36 84h2v2h-2zM38 84h2v2h-2z"/>
    <path fill="#FBD936"
          d="M40 84h2v2h-2zM42 84h2v2h-2zM44 84h2v2h-2zM46 84h2v2h-2zM48 84h2v2h-2zM50 84h2v2h-2zM52 84h2v2h-2zM54 84h2v2h-2zM56 84h2v2h-2zM58 84h2v2h-2zM60 84h2v2h-2zM62 84h2v2h-2zM64 84h2v2h-2zM66 84h2v2h-2zM68 84h2v2h-2zM70 84h2v2h-2z"/>
    <path fill="#FBE136"
          d="M72 84h2v2h-2zM74 84h2v2h-2zM76 84h2v2h-2zM78 84h2v2h-2zM80 84h2v2h-2zM82 84h2v2h-2zM84 84h2v2h-2zM86 84h2v2h-2zM88 84h2v2h-2zM90 84h2v2h-2zM92 84h2v2h-2zM94 84h2v2h-2z"/>
    <path fill="#FBEB36"
          d="M96 84h2v2h-2zM98 84h2v2h-2zM100 84h2v2h-2zM102 84h2v2h-2zM104 84h2v2h-2zM106 84h2v2h-2zM108 84h2v2h-2zM110 84h2v2h-2z"/>
    <path fill="#FBCE36"
          d="M16 86h2v2h-2zM18 86h2v2h-2zM20 86h2v2h-2zM22 86h2v2h-2zM24 86h2v2h-2zM26 86h2v2h-2zM28 86h2v2h-2zM30 86h2v2h-2zM32 86h2v2h-2zM34 86h2v2h-2zM36 86h2v2h-2zM38 86h2v2h-2z"/>
    <path fill="#FBD936"
          d="M40 86h2v2h-2zM42 86h2v2h-2zM44 86h2v2h-2zM46 86h2v2h-2zM48 86h2v2h-2zM50 86h2v2h-2zM52 86h2v2h-2zM54 86h2v2h-2zM56 86h2v2h-2zM58 86h2v2h-2zM60 86h2v2h-2zM62 86h2v2h-2zM64 86h2v2h-2zM66 86h2v2h-2zM68 86h2v2h-2zM70 86h2v2h-2z"/>
    <path fill="#FBE136"
          d="M72 86h2v2h-2zM74 86h2v2h-2zM76 86h2v2h-2zM78 86h2v2h-2zM80 86h2v2h-2zM82 86h2v2h-2zM84 86h2v2h-2zM86 86h2v2h-2zM88 86h2v2h-2zM90 86h2v2h-2zM92 86h2v2h-2zM94 86h2v2h-2z"/>
    <path fill="#FBEB36"
          d="M96 86h2v2h-2zM98 86h2v2h-2zM100 86h2v2h-2zM102 86h2v2h-2zM104 86h2v2h-2zM106 86h2v2h-2zM108 86h2v2h-2zM110 86h2v2h-2z"/>
    <path fill="#FBCE36"
          d="M16 88h2v2h-2zM18 88h2v2h-2zM20 88h2v2h-2zM22 88h2v2h-2zM24 88h2v2h-2zM26 88h2v2h-2zM28 88h2v2h-2zM30 88h2v2h-2zM32 88h2v2h-2zM34 88h2v2h-2zM36 88h2v2h-2zM38 88h2v2h-2zM40 88h2v2h-2zM42 88h2v2h-2zM44 88h2v2h-2zM46 88h2v2h-2z"/>
    <path fill="#FBD936"
          d="M48 88h2v2h-2zM50 88h2v2h-2zM52 88h2v2h-2zM54 88h2v2h-2zM56 88h2v2h-2zM58 88h2v2h-2zM60 88h2v2h-2zM62 88h2v2h-2zM64 88h2v2h-2zM66 88h2v2h-2zM68 88h2v2h-2zM70 88h2v2h-2zM72 88h2v2h-2zM74 88h2v2h-2zM76 88h2v2h-2zM78 88h2v2h-2z"/>
    <path fill="#FBE136"
          d="M80 88h2v2h-2zM82 88h2v2h-2zM84 88h2v2h-2zM86 88h2v2h-2zM88 88h2v2h-2zM90 88h2v2h-2zM92 88h2v2h-2zM94 88h2v2h-2zM96 88h2v2h-2zM98 88h2v2h-2zM100 88h2v2h-2zM102 88h2v2h-2zM104 88h2v2h-2zM106 88h2v2h-2zM108 88h2v2h-2zM110 88h2v2h-2z"/>
    <path fill="#FBCE36"
          d="M16 90h2v2h-2zM18 90h2v2h-2zM20 90h2v2h-2zM22 90h2v2h-2zM24 90h2v2h-2zM26 90h2v2h-2zM28 90h2v2h-2zM30 90h2v2h-2zM32 90h2v2h-2zM34 90h2v2h-2zM36 90h2v2h-2zM38 90h2v2h-2zM40 90h2v2h-2zM42 90h2v2h-2zM44 90h2v2h-2zM46 90h2v2h-2z"/>
    <path fill="#FBD936"
          d="M48 90h2v2h-2zM50 90h2v2h-2zM52 90h2v2h-2zM54 90h2v2h-2zM56 90h2v2h-2zM58 90h2v2h-2zM60 90h2v2h-2zM62 90h2v2h-2zM64 90h2v2h-2zM66 90h2v2h-2zM68 90h2v2h-2zM70 90h2v2h-2zM72 90h2v2h-2zM74 90h2v2h-2zM76 90h2v2h-2zM78 90h2v2h-2z"/>
    <path fill="#FBE136"
          d="M80 90h2v2h-2zM82 90h2v2h-2zM84 90h2v2h-2zM86 90h2v2h-2zM88 90h2v2h-2zM90 90h2v2h-2zM92 90h2v2h-2zM94 90h2v2h-2zM96 90h2v2h-2zM98 90h2v2h-2zM100 90h2v2h-2zM102 90h2v2h-2zM104 90h2v2h-2zM106 90h2v2h-2zM108 90h2v2h-2zM110 90h2v2h-2z"/>
    <path fill="#FBCE36"
          d="M16 92h2v2h-2zM18 92h2v2h-2zM20 92h2v2h-2zM22 92h2v2h-2zM24 92h2v2h-2zM26 92h2v2h-2zM28 92h2v2h-2zM30 92h2v2h-2zM32 92h2v2h-2zM34 92h2v2h-2zM36 92h2v2h-2zM38 92h2v2h-2zM40 92h2v2h-2zM42 92h2v2h-2zM44 92h2v2h-2zM46 92h2v2h-2z"/>
    <path fill="#FBD936"
          d="M48 92h2v2h-2zM50 92h2v2h-2zM52 92h2v2h-2zM54 92h2v2h-2zM56 92h2v2h-2zM58 92h2v2h-2zM60 92h2v2h-2zM62 92h2v2h-2zM64 92h2v2h-2zM66 92h2v2h-2zM68 92h2v2h-2zM70 92h2v2h-2zM72 92h2v2h-2zM74 92h2v2h-2zM76 92h2v2h-2zM78 92h2v2h-2z"/>
    <path fill="#FBE136"
          d="M80 92h2v2h-2zM82 92h2v2h-2zM84 92h2v2h-2zM86 92h2v2h-2zM88 92h2v2h-2zM90 92h2v2h-2zM92 92h2v2h-2zM94 92h2v2h-2zM96 92h2v2h-2zM98 92h2v2h-2zM100 92h2v2h-2zM102 92h2v2h-2zM104 92h2v2h-2zM106 92h2v2h-2zM108 92h2v2h-2zM110 92h2v2h-2z"/>
    <path fill="#FBCE36"
          d="M16 94h2v2h-2zM18 94h2v2h-2zM20 94h2v2h-2zM22 94h2v2h-2zM24 94h2v2h-2zM26 94h2v2h-2zM28 94h2v2h-2zM30 94h2v2h-2zM32 94h2v2h-2zM34 94h2v2h-2zM36 94h2v2h-2zM38 94h2v2h-2zM40 94h2v2h-2zM42 94h2v2h-2zM44 94h2v2h-2zM46 94h2v2h-2z"/>
    <path fill="#FBD936"
          d="M48 94h2v2h-2zM50 94h2v2h-2zM52 94h2v2h-2zM54 94h2v2h-2zM56 94h2v2h-2zM58 94h2v2h-2zM60 94h2v2h-2zM62 94h2v2h-2zM64 94h2v2h-2zM66 94h2v2h-2zM68 94h2v2h-2zM70 94h2v2h-2zM72 94h2v2h-2zM74 94h2v2h-2zM76 94h2v2h-2zM78 94h2v2h-2z"/>
    <path fill="#FBE136"
          d="M80 94h2v2h-2zM82 94h2v2h-2zM84 94h2v2h-2zM86 94h2v2h-2zM88 94h2v2h-2zM90 94h2v2h-2zM92 94h2v2h-2zM94 94h2v2h-2zM96 94h2v2h-2zM98 94h2v2h-2zM100 94h2v2h-2zM102 94h2v2h-2zM104 94h2v2h-2zM106 94h2v2h-2zM108 94h2v2h-2zM110 94h2v2h-2z"/>
    <path fill="#FBCE36"
          d="M24 96h2v2h-2zM26 96h2v2h-2zM28 96h2v2h-2zM30 96h2v2h-2zM32 96h2v2h-2zM34 96h2v2h-2zM36 96h2v2h-2zM38 96h2v2h-2zM40 96h2v2h-2zM42 96h2v2h-2zM44 96h2v2h-2zM46 96h2v2h-2zM48 96h2v2h-2zM50 96h2v2h-2zM52 96h2v2h-2zM54 96h2v2h-2zM56 96h2v2h-2zM58 96h2v2h-2zM60 96h2v2h-2zM62 96h2v2h-2z"/>
    <path fill="#FBD936"
          d="M64 96h2v2h-2zM66 96h2v2h-2zM68 96h2v2h-2zM70 96h2v2h-2zM72 96h2v2h-2zM74 96h2v2h-2zM76 96h2v2h-2zM78 96h2v2h-2zM80 96h2v2h-2zM82 96h2v2h-2zM84 96h2v2h-2zM86 96h2v2h-2zM88 96h2v2h-2zM90 96h2v2h-2zM92 96h2v2h-2zM94 96h2v2h-2zM96 96h2v2h-2zM98 96h2v2h-2zM100 96h2v2h-2zM102 96h2v2h-2z"/>
    <path fill="#FBCE36"
          d="M24 98h2v2h-2zM26 98h2v2h-2zM28 98h2v2h-2zM30 98h2v2h-2zM32 98h2v2h-2zM34 98h2v2h-2zM36 98h2v2h-2zM38 98h2v2h-2zM40 98h2v2h-2zM42 98h2v2h-2zM44 98h2v2h-2zM46 98h2v2h-2zM48 98h2v2h-2zM50 98h2v2h-2zM52 98h2v2h-2zM54 98h2v2h-2zM56 98h2v2h-2zM58 98h2v2h-2zM60 98h2v2h-2zM62 98h2v2h-2z"/>
    <path fill="#FBD936"
          d="M64 98h2v2h-2zM66 98h2v2h-2zM68 98h2v2h-2zM70 98h2v2h-2zM72 98h2v2h-2zM74 98h2v2h-2zM76 98h2v2h-2zM78 98h2v2h-2zM80 98h2v2h-2zM82 98h2v2h-2zM84 98h2v2h-2zM86 98h2v2h-2zM88 98h2v2h-2zM90 98h2v2h-2zM92 98h2v2h-2zM94 98h2v2h-2zM96 98h2v2h-2zM98 98h2v2h-2zM100 98h2v2h-2zM102 98h2v2h-2z"/>
    <path fill="#FBCE36"
          d="M24 100h2v2h-2zM26 100h2v2h-2zM28 100h2v2h-2zM30 100h2v2h-2zM32 100h2v2h-2zM34 100h2v2h-2zM36 100h2v2h-2zM38 100h2v2h-2zM40 100h2v2h-2zM42 100h2v2h-2zM44 100h2v2h-2zM46 100h2v2h-2zM48 100h2v2h-2zM50 100h2v2h-2zM52 100h2v2h-2zM54 100h2v2h-2zM56 100h2v2h-2zM58 100h2v2h-2zM60 100h2v2h-2zM62 100h2v2h-2z"/>
    <path fill="#FBD936"
          d="M64 100h2v2h-2zM66 100h2v2h-2zM68 100h2v2h-2zM70 100h2v2h-2zM72 100h2v2h-2zM74 100h2v2h-2zM76 100h2v2h-2zM78 100h2v2h-2zM80 100h2v2h-2zM82 100h2v2h-2zM84 100h2v2h-2zM86 100h2v2h-2zM88 100h2v2h-2zM90 100h2v2h-2zM92 100h2v2h-2zM94 100h2v2h-2zM96 100h2v2h-2zM98 100h2v2h-2zM100 100h2v2h-2zM102 100h2v2h-2z"/>
    <path fill="#FBCE36"
          d="M24 102h2v2h-2zM26 102h2v2h-2zM28 102h2v2h-2zM30 102h2v2h-2zM32 102h2v2h-2zM34 102h2v2h-2zM36 102h2v2h-2zM38 102h2v2h-2zM40 102h2v2h-2zM42 102h2v2h-2zM44 102h2v2h-2zM46 102h2v2h-2zM48 102h2v2h-2zM50 102h2v2h-2zM52 102h2v2h-2zM54 102h2v2h-2zM56 102h2v2h-2zM58 102h2v2h-2zM60 102h2v2h-2zM62 102h2v2h-2z"/>
    <path fill="#FBD936"
          d="M64 102h2v2h-2zM66 102h2v2h-2zM68 102h2v2h-2zM70 102h2v2h-2zM72 102h2v2h-2zM74 102h2v2h-2zM76 102h2v2h-2zM78 102h2v2h-2zM80 102h2v2h-2zM82 102h2v2h-2zM84 102h2v2h-2zM86 102h2v2h-2zM88 102h2v2h-2zM90 102h2v2h-2zM92 102h2v2h-2zM94 102h2v2h-2zM96 102h2v2h-2zM98 102h2v2h-2zM100 102h2v2h-2zM102 102h2v2h-2z"/>
    <path fill="#FBCE36"
          d="M32 104h2v2h-2zM34 104h2v2h-2zM36 104h2v2h-2zM38 104h2v2h-2zM40 104h2v2h-2zM42 104h2v2h-2zM44 104h2v2h-2zM46 104h2v2h-2zM48 104h2v2h-2zM50 104h2v2h-2zM52 104h2v2h-2zM54 104h2v2h-2zM56 104h2v2h-2zM58 104h2v2h-2zM60 104h2v2h-2zM62 104h2v2h-2zM64 104h2v2h-2zM66 104h2v2h-2zM68 104h2v2h-2zM70 104h2v2h-2zM72 104h2v2h-2zM74 104h2v2h-2zM76 104h2v2h-2zM78 104h2v2h-2zM80 104h2v2h-2zM82 104h2v2h-2zM84 104h2v2h-2zM86 104h2v2h-2zM88 104h2v2h-2zM90 104h2v2h-2zM92 104h2v2h-2zM94 104h2v2h-2zM32 106h2v2h-2zM34 106h2v2h-2zM36 106h2v2h-2zM38 106h2v2h-2zM40 106h2v2h-2zM42 106h2v2h-2zM44 106h2v2h-2zM46 106h2v2h-2zM48 106h2v2h-2zM50 106h2v2h-2zM52 106h2v2h-2zM54 106h2v2h-2zM56 106h2v2h-2zM58 106h2v2h-2zM60 106h2v2h-2zM62 106h2v2h-2zM64 106h2v2h-2zM66 106h2v2h-2zM68 106h2v2h-2zM70 106h2v2h-2zM72 106h2v2h-2zM74 106h2v2h-2zM76 106h2v2h-2zM78 106h2v2h-2zM80 106h2v2h-2zM82 106h2v2h-2zM84 106h2v2h-2zM86 106h2v2h-2zM88 106h2v2h-2zM90 106h2v2h-2zM92 106h2v2h-2zM94 106h2v2h-2zM32 108h2v2h-2zM34 108h2v2h-2zM36 108h2v2h-2zM38 108h2v2h-2zM40 108h2v2h-2zM42 108h2v2h-2zM44 108h2v2h-2zM46 108h2v2h-2zM48 108h2v2h-2zM50 108h2v2h-2zM52 108h2v2h-2zM54 108h2v2h-2zM56 108h2v2h-2zM58 108h2v2h-2zM60 108h2v2h-2zM62 108h2v2h-2zM64 108h2v2h-2zM66 108h2v2h-2zM68 108h2v2h-2zM70 108h2v2h-2zM72 108h2v2h-2zM74 108h2v2h-2zM76 108h2v2h-2zM78 108h2v2h-2zM80 108h2v2h-2zM82 108h2v2h-2zM84 108h2v2h-2zM86 108h2v2h-2zM88 108h2v2h-2zM90 108h2v2h-2zM92 108h2v2h-2zM94 108h2v2h-2zM32 110h2v2h-2zM34 110h2v2h-2zM36 110h2v2h-2zM38 110h2v2h-2zM40 110h2v2h-2zM42 110h2v2h-2zM44 110h2v2h-2zM46 110h2v2h-2zM48 110h2v2h-2zM50 110h2v2h-2zM52 110h2v2h-2zM54 110h2v2h-2zM56 110h2v2h-2zM58 110h2v2h-2zM60 110h2v2h-2zM62 110h2v2h-2zM64 110h2v2h-2zM66 110h2v2h-2zM68 110h2v2h-2zM70 110h2v2h-2zM72 110h2v2h-2zM74 110h2v2h-2zM76 110h2v2h-2zM78 110h2v2h-2zM80 110h2v2h-2zM82 110h2v2h-2zM84 110h2v2h-2zM86 110h2v2h-2zM88 110h2v2h-2zM90 110h2v2h-2zM92 110h2v2h-2zM94 110h2v2h-2zM48 112h2v2h-2zM50 112h2v2h-2zM52 112h2v2h-2zM54 112h2v2h-2zM56 112h2v2h-2zM58 112h2v2h-2zM60 112h2v2h-2zM62 112h2v2h-2zM64 112h2v2h-2zM66 112h2v2h-2zM68 112h2v2h-2zM70 112h2v2h-2zM72 112h2v2h-2zM74 112h2v2h-2zM76 112h2v2h-2zM78 112h2v2h-2zM48 114h2v2h-2zM50 114h2v2h-2zM52 114h2v2h-2zM54 114h2v2h-2zM56 114h2v2h-2zM58 114h2v2h-2zM60 114h2v2h-2zM62 114h2v2h-2zM64 114h2v2h-2zM66 114h2v2h-2zM68 114h2v2h-2zM70 114h2v2h-2zM72 114h2v2h-2zM74 114h2v2h-2zM76 114h2v2h-2zM78 114h2v2h-2zM48 116h2v2h-2zM50 116h2v2h-2zM52 116h2v2h-2zM54 116h2v2h-2zM56 116h2v2h-2zM58 116h2v2h-2zM60 116h2v2h-2zM62 116h2v2h-2zM64 116h2v2h-2zM66 116h2v2h-2zM68 116h2v2h-2zM70 116h2v2h-2zM72 116h2v2h-2zM74 116h2v2h-2zM76 116h2v2h-2zM78 116h2v2h-2zM48 118h2v2h-2zM50 118h2v2h-2zM52 118h2v2h-2zM54 118h2v2h-2zM56 118h2v2h-2zM58 118h2v2h-2zM60 118h2v2h-2zM62 118h2v2h-2zM64 118h2v2h-2zM66 118h2v2h-2zM68 118h2v2h-2zM70 118h2v2h-2zM72 118h2v2h-2zM74 118h2v2h-2zM76 118h2v2h-2zM78 118h2v2h-2z"/>
</svg>